<svg xmlns="http://www.w3.org/2000/svg" xmlns:xlink="http://www.w3.org/1999/xlink" fill="#ffffff" id="Capa_1" width="800px" height="800px" viewBox="0 0 337.517 337.517" xml:space="preserve" stroke="#ffffff"><g id="SVGRepo_bgCarrier" stroke-width="0"></g><g id="SVGRepo_tracerCarrier" stroke-linecap="round" stroke-linejoin="round"></g><g id="SVGRepo_iconCarrier"> <g> <g> <g> <path d="M333.433,88.889c-5.418-5.436-14.227-5.468-19.623-0.077l-0.226-0.226l-76.562,80.81l16.137,18.481l81.938-81.314 C338.797,101.175,338.262,93.71,333.433,88.889z M254.943,178.459l-3.685-3.921l49.723-46.59l3.686,3.923L254.943,178.459z"></path> <path d="M196.9,187.237c-13.889,1.254-24.245,5.422-32.197,10.95l-7.822,17.728h14.686v5.375h-22.938l6.499-14.729 c-8.239,9.076-12.648,19.537-15.942,27.411c-1.375,3.287-2.57,6.131-3.801,8.354c-7.494,13.468-18.528,18.282-35.767,15.795 c8.034,13.779,33.252,52.073,65.429,52.073c11.312,0,22.493-4.766,33.454-14.104l-20.567,7.228l28.956-49.333l4.63,2.719 l-21.522,36.673l17.664-6.211c6.404-7.061,12.725-15.748,18.935-26.042c5.302-8.777,11.434-24.001,11.265-37.995 c0.037-0.52,1.786-15.863-7.438-26.289C223.583,189.101,212.655,185.782,196.9,187.237z M164.782,277.243 c-9.927,0-18.84-3.974-19.404-4.23l-4.218-1.906l24.903-17.941l3.14,4.362l-17.019,12.256c6.176,1.9,17.316,4.1,24.985-1.416 l3.124,4.376C175.577,276.124,170.035,277.243,164.782,277.243z M186.292,241.112c-1.102,0-2.047-0.21-2.803-0.683 c-1.082-0.683-2.778-2.379-2.005-6.237c2.771-13.837,11.726-26.479,12.094-27.009l4.373,3.124 c-0.09,0.115-8.657,12.253-11.197,24.956c-0.062,0.263-0.083,0.473-0.094,0.619c0.011,0,0.021,0,0.031,0 c3.527,0,16.174-7.298,28.053-16.283l3.243,4.282C208.97,230.691,193.939,241.112,186.292,241.112z"></path> <path d="M252.318,206.623c2.085-2.132,0.374-9.123-1.506-13.439l-19.145-21.761c-2.955-1.683-6.83-3.252-9.196-1.753 c-3.633,2.318-3.718,10.852-3.456,14.002c6.279,1.911,11.481,5.103,15.46,9.613c3.339,3.784,5.466,8.024,6.793,12.109 C249.1,208.539,251.615,207.337,252.318,206.623z"></path> <polygon points="275.269,252.638 244.586,252.638 244.586,258.014 280.645,258.014 280.645,193.069 275.269,193.069 "></polygon> </g> <path d="M280.645,94.07v-5.145V27.324H0v61.602v169.088h80.631v-5.376H5.375V88.925h269.894v5.145H280.645z M5.375,83.55V32.699 h269.894V83.55H5.375z"></path> <path d="M250.853,41.655c-8.151,0-14.781,6.627-14.781,14.783c0,8.155,6.63,14.782,14.781,14.782 c8.164,0,14.784-6.627,14.784-14.782C265.637,48.282,259.017,41.655,250.853,41.655z M250.853,65.844 c-5.186,0-9.406-4.22-9.406-9.406c0-5.187,4.221-9.407,9.406-9.407c5.187,0,9.408,4.22,9.408,9.407 C260.261,61.624,256.04,65.844,250.853,65.844z"></path> <path d="M197.1,41.655c-8.152,0-14.782,6.627-14.782,14.783c0,8.155,6.63,14.782,14.782,14.782 c8.162,0,14.781-6.627,14.781-14.782C211.881,48.282,205.262,41.655,197.1,41.655z M197.1,65.844c-5.187,0-9.406-4.22-9.406-9.406 c0-5.187,4.22-9.407,9.406-9.407c5.186,0,9.406,4.22,9.406,9.407C206.506,61.624,202.286,65.844,197.1,65.844z"></path> <path d="M143.346,41.655c-8.156,0-14.782,6.627-14.782,14.783c0,8.155,6.626,14.782,14.782,14.782 c8.16,0,14.782-6.627,14.782-14.782C158.128,48.282,151.506,41.655,143.346,41.655z M143.346,65.844 c-5.187,0-9.407-4.22-9.407-9.406c0-5.187,4.221-9.407,9.407-9.407c5.186,0,9.407,4.22,9.407,9.407 C152.753,61.624,148.532,65.844,143.346,65.844z"></path> </g> </g> </g></svg>