<svg xmlns="http://www.w3.org/2000/svg" xmlns:xlink="http://www.w3.org/1999/xlink" fill="#ffffff" id="Capa_1" width="800px" height="800px" viewBox="0 0 195.898 195.898" xml:space="preserve" stroke="#ffffff"><g id="SVGRepo_bgCarrier" stroke-width="0"></g><g id="SVGRepo_tracerCarrier" stroke-linecap="round" stroke-linejoin="round"></g><g id="SVGRepo_iconCarrier"> <g> <g> <path d="M84.409,134.519l-2.661-2.663l2.478-2.478l2.665,2.663c0.438,0.438,1.067,0.608,1.667,0.458 c13.177-3.34,37.955-12.429,58.59-35.955c0.055-0.053,0.093-0.109,0.144-0.169c12.3-14.079,23.113-33.305,29.089-59.53 c0.267-1.174-0.917-2.361-2.095-2.096c-15.037,3.424-27.757,8.446-38.54,14.417c-0.024-0.007-0.041-0.017-0.065-0.024 c-0.831-0.126-1.588,0.366-1.871,1.127c-10.972,6.333-19.853,13.649-27.042,21.26c-0.305,0.171-0.544,0.428-0.705,0.753 c-17.277,18.637-24.53,38.834-27.436,50.286c-0.147,0.599,0.025,1.231,0.463,1.67l2.663,2.662l-2.478,2.478l-2.663-2.662 c-0.445-0.445-1.097-0.616-1.704-0.448c-0.606,0.164-1.078,0.646-1.237,1.256c-1.415,5.595-8.973,16.43-9.046,16.543 c-0.491,0.697-0.407,1.639,0.195,2.241c0.602,0.605,1.545,0.688,2.243,0.202c0.107-0.075,10.94-7.632,16.544-9.056 c0.609-0.15,1.093-0.622,1.257-1.231C85.029,135.617,84.857,134.963,84.409,134.519z M88.656,128.852l-1.952-1.951l29.438-29.439 l25.729-0.365C122.912,117.264,101.068,125.576,88.656,128.852z M172.311,38.817c-5.869,23.868-15.889,41.576-27.247,54.728 l-25.361,0.364l33.082-33.08c0.681-0.685,0.681-1.795,0-2.478c-0.681-0.684-1.793-0.684-2.478,0l-16.861,16.863l3.484-22.67 C146.895,46.956,158.578,42.192,172.311,38.817z M133.031,54.825l-3.781,24.576l-26.466,26.467l6.392-31.758 C115.616,67.266,123.463,60.659,133.031,54.825z M82.271,122.473c2.705-10.257,8.853-26.955,22.278-43.149l-6.242,31.017 L84.223,124.43L82.271,122.473z M71.918,139.207c1.531-2.561,3.129-5.466,4.188-8.029l3.84,3.84 C77.385,136.082,74.477,137.677,71.918,139.207z"></path> <path d="M162.12,192.394H22.985V3.504h139.131v27.194c1.146-0.34,2.341-0.611,3.505-0.929V0H19.48v195.898h146.141V82.933 c-1.137,1.882-2.286,3.75-3.505,5.561v103.9H162.12z"></path> </g> </g> </g></svg>