<svg xmlns="http://www.w3.org/2000/svg" xmlns:xlink="http://www.w3.org/1999/xlink" id="Uploaded to svgrepo.com" width="800px" height="800px" viewBox="0 0 32 32" xml:space="preserve" fill="#6aacb9"><g id="SVGRepo_bgCarrier" stroke-width="0"></g><g id="SVGRepo_tracerCarrier" stroke-linecap="round" stroke-linejoin="round"></g><g id="SVGRepo_iconCarrier"> <style type="text/css"> .blueprint_een{fill:#6aacb9;} .st0{fill:#6aacb9;} </style> <path class="blueprint_een" d="M31.431,13.848c-0.138-0.065-0.285-0.098-0.432-0.098c-0.225,0-0.448,0.076-0.628,0.223 c-0.578,0.466-2.368,1.677-3.705,1.677c-0.41,0-0.715-0.113-0.959-0.357c-0.404-0.404-0.765-0.808-1.111-1.194 C23.169,12.505,21.821,11,19,11c-1.087,0-2.112,0.239-3,0.697C15.112,11.239,14.087,11,13,11c-2.821,0-4.169,1.505-5.596,3.099 c-0.346,0.386-0.707,0.791-1.111,1.194c-0.244,0.244-0.549,0.357-0.959,0.357c-1.336,0-3.127-1.211-3.704-1.677 c-0.181-0.147-0.404-0.222-0.629-0.222c-0.147,0-0.294,0.032-0.431,0.097C0.222,14.014,0,14.365,0,14.75C0,19.755,3.907,24,9.5,24 c2.314,0,4.699-0.889,6.5-2.375C17.801,23.111,20.186,24,22.5,24c5.593,0,9.5-4.245,9.5-9.25C32,14.365,31.778,14.014,31.431,13.848 z M13,13c0.761,0,1.481,0.164,2.083,0.475c0.288,0.148,0.602,0.223,0.917,0.223s0.629-0.074,0.917-0.223 C17.519,13.164,18.239,13,19,13c1.735,0,2.58,0.749,3.88,2.184c-0.475-0.147-0.903-0.325-1.317-0.505 c-0.802-0.349-1.56-0.678-2.562-0.678c-1.491,0-2.476,0.926-2.999,1.598c-0.522-0.672-1.505-1.598-2.992-1.598 c-0.003,0-0.007,0-0.01,0c-1.013,0.003-1.767,0.331-2.564,0.679c-0.412,0.179-0.838,0.356-1.313,0.503 C10.416,13.753,11.261,13,13,13z M17.273,20.082c-0.37-0.305-0.821-0.457-1.273-0.457c-0.452,0-0.903,0.152-1.273,0.457 C13.272,21.283,11.318,22,9.5,22c-1.106,0-2.128-0.229-3.055-0.61c1.079-0.47,2.169-1.138,3.182-1.766 c1.286-0.798,2.616-1.623,3.373-1.623c1.745,0,2.613,0.821,2.649,0.856c0.184,0.182,0.472,0.185,0.667,0.022 c0.011-0.009,0.024-0.012,0.034-0.022c0.036-0.035,0.904-0.856,2.649-0.856c0.757,0,2.087,0.825,3.373,1.623 c1.014,0.628,2.103,1.297,3.182,1.766C24.628,21.771,23.606,22,22.5,22C20.683,22,18.729,21.283,17.273,20.082z M26.74,20.777 c-1.236-0.391-2.598-1.233-3.839-2.002c-1.534-0.952-2.859-1.773-3.9-1.773c-1.518,0-2.513,0.528-3,0.868 c-0.487-0.34-1.482-0.868-3-0.868c-1.041,0-2.366,0.821-3.9,1.773c-1.241,0.769-2.603,1.611-3.839,2.002 c-1.447-0.929-2.521-2.322-2.992-4.017c0.895,0.469,1.997,0.891,3.065,0.891c1.182,0,1.943-0.513,2.373-0.943 c0.089-0.089,0.168-0.176,0.253-0.264c1.226-0.137,2.094-0.508,2.873-0.847c0.731-0.318,1.363-0.594,2.168-0.596 c0.003,0,0.005,0,0.008,0c1.652,0,2.536,1.707,2.544,1.725c0.007,0.013,0.02,0.018,0.028,0.03c0.034,0.055,0.078,0.102,0.132,0.142 c0.016,0.011,0.028,0.026,0.045,0.035c0.007,0.004,0.011,0.01,0.018,0.014C15.848,16.983,15.924,17,15.999,17L16,17l0.001,0 c0.075,0,0.151-0.017,0.223-0.053c0.008-0.004,0.012-0.011,0.019-0.015c0.016-0.009,0.027-0.022,0.041-0.032 c0.057-0.041,0.102-0.089,0.137-0.147c0.007-0.011,0.019-0.016,0.025-0.027c0.009-0.017,0.896-1.725,2.554-1.725 c0.795,0,1.43,0.275,2.164,0.596c0.783,0.34,1.657,0.713,2.878,0.848c0.085,0.088,0.163,0.174,0.251,0.262 c0.43,0.43,1.191,0.943,2.373,0.943c1.067,0,2.169-0.422,3.065-0.891C29.261,18.454,28.186,19.848,26.74,20.777z"></path> </g></svg>