<svg xmlns="http://www.w3.org/2000/svg" xmlns:xlink="http://www.w3.org/1999/xlink" height="800px" width="800px" id="Capa_1" viewBox="0 0 296.195 296.195" xml:space="preserve" fill="#ffffff" stroke="#ffffff"><g id="SVGRepo_bgCarrier" stroke-width="0"></g><g id="SVGRepo_tracerCarrier" stroke-linecap="round" stroke-linejoin="round"></g><g id="SVGRepo_iconCarrier"> <g> <g> <path style="fill:#ffffff;" d="M85.105,262.791h125.98c46.928,0,85.11-38.182,85.11-85.11v-59.166 c0-46.928-38.182-85.11-85.11-85.11H85.105C38.177,33.404,0,71.586,0,118.514v59.166C0,224.614,38.177,262.791,85.105,262.791z M211.085,251.913H85.105c-16.915,0-32.482-5.755-44.976-15.316c8.371-10.302,45.269-54.896,75.032-77.893 c10.9,6.587,22.023,10.791,32.852,10.96c0.207,0,0.408,0.005,0.609,0.005c10.443,0,21.359-4.166,32.156-10.786 c29.937,23.219,67.004,68.119,74.983,77.947C243.311,246.251,227.864,251.913,211.085,251.913z M285.317,118.514v59.166 c0,20.239-8.164,38.596-21.343,51.997c-8.469-10.454-43.431-52.781-73.765-77.202C224.628,126.874,256,80.321,264.518,67.11 C277.365,80.468,285.317,98.564,285.317,118.514z M85.105,44.282h125.98c17.019,0,32.678,5.82,45.21,15.49 c-4.019,6.271-18.351,28.066-36.855,49.577c-14.462,16.812-28.006,29.458-40.282,37.769c-0.892,0.305-1.702,0.805-2.344,1.556 c-10.427,6.674-19.902,10.111-28.174,10.111c-0.152,0-0.305,0-0.457-0.005c-9.779-0.152-20.07-4.389-30.268-10.998 c-0.212-0.136-0.424-0.272-0.636-0.413c-36.121-23.758-70.866-77.224-77.392-87.591C52.422,50.107,68.075,44.282,85.105,44.282z M10.878,118.514c0-19.934,7.941-38.024,20.772-51.372c8.425,13.304,39.183,59.618,74.009,85.203 c-30.116,24.188-64.839,66.117-73.705,77.05c-13.021-13.38-21.082-31.612-21.082-51.715v-59.166H10.878z"></path> </g> </g> </g></svg>